<mxfile host="app.diagrams.net" modified="2023-07-12T17:11:58.231Z" agent="Mozilla/5.0 (X11; Linux x86_64; rv:107.0) Gecko/20100101 Firefox/107.0" etag="XXPtSj3SR1nR21dVFRfa" version="21.6.2">
  <diagram name="Page-1" id="Qx_pXZXx4m_uFdPb8SC9">
    <mxGraphModel dx="2074" dy="1162" grid="1" gridSize="10" guides="1" tooltips="1" connect="1" arrows="1" fold="1" page="1" pageScale="1" pageWidth="850" pageHeight="1100" math="0" shadow="0">
      <root>
        <mxCell id="0" />
        <mxCell id="1" parent="0" />
        <mxCell id="ySbRYTqzYimIQLC_99c8-60" value="" style="rounded=1;whiteSpace=wrap;html=1;fillColor=none;strokeWidth=2;strokeColor=#787878;dashed=1;" vertex="1" parent="1">
          <mxGeometry x="130" y="105" width="630" height="90" as="geometry" />
        </mxCell>
        <mxCell id="ySbRYTqzYimIQLC_99c8-62" value="" style="rounded=1;whiteSpace=wrap;html=1;fillColor=none;strokeWidth=2;strokeColor=#787878;dashed=1;" vertex="1" parent="1">
          <mxGeometry x="130" y="380" width="630" height="200" as="geometry" />
        </mxCell>
        <mxCell id="ySbRYTqzYimIQLC_99c8-61" value="" style="rounded=1;whiteSpace=wrap;html=1;fillColor=none;strokeWidth=2;strokeColor=#787878;dashed=1;" vertex="1" parent="1">
          <mxGeometry x="130" y="250" width="630" height="90" as="geometry" />
        </mxCell>
        <mxCell id="ySbRYTqzYimIQLC_99c8-54" value="bluse_analyzer_n" style="rounded=1;whiteSpace=wrap;html=1;" vertex="1" parent="1">
          <mxGeometry x="620" y="505" width="120" height="60" as="geometry" />
        </mxCell>
        <mxCell id="ySbRYTqzYimIQLC_99c8-55" value="bluse_analyzer_n" style="rounded=1;whiteSpace=wrap;html=1;" vertex="1" parent="1">
          <mxGeometry x="280" y="505" width="120" height="60" as="geometry" />
        </mxCell>
        <mxCell id="ySbRYTqzYimIQLC_99c8-53" value="bluse_analyzer_n" style="rounded=1;whiteSpace=wrap;html=1;" vertex="1" parent="1">
          <mxGeometry x="450" y="505" width="120" height="60" as="geometry" />
        </mxCell>
        <mxCell id="ySbRYTqzYimIQLC_99c8-51" style="edgeStyle=orthogonalEdgeStyle;rounded=0;orthogonalLoop=1;jettySize=auto;html=1;exitX=0.5;exitY=1;exitDx=0;exitDy=0;entryX=0.5;entryY=0;entryDx=0;entryDy=0;" edge="1" parent="1" source="ySbRYTqzYimIQLC_99c8-6" target="ySbRYTqzYimIQLC_99c8-42">
          <mxGeometry relative="1" as="geometry" />
        </mxCell>
        <mxCell id="ySbRYTqzYimIQLC_99c8-6" value="blpnN" style="rounded=0;whiteSpace=wrap;html=1;" vertex="1" parent="1">
          <mxGeometry x="560" y="270" width="120" height="60" as="geometry" />
        </mxCell>
        <mxCell id="ySbRYTqzYimIQLC_99c8-50" style="edgeStyle=orthogonalEdgeStyle;rounded=0;orthogonalLoop=1;jettySize=auto;html=1;exitX=0.5;exitY=1;exitDx=0;exitDy=0;entryX=0.5;entryY=0;entryDx=0;entryDy=0;" edge="1" parent="1" source="ySbRYTqzYimIQLC_99c8-4" target="ySbRYTqzYimIQLC_99c8-40">
          <mxGeometry relative="1" as="geometry" />
        </mxCell>
        <mxCell id="ySbRYTqzYimIQLC_99c8-4" value="&lt;font style=&quot;font-size: 14px;&quot;&gt;blpn1&lt;/font&gt;" style="rounded=0;whiteSpace=wrap;html=1;" vertex="1" parent="1">
          <mxGeometry x="390" y="270" width="120" height="60" as="geometry" />
        </mxCell>
        <mxCell id="ySbRYTqzYimIQLC_99c8-28" value="bluse_analyzer_1" style="rounded=1;whiteSpace=wrap;html=1;" vertex="1" parent="1">
          <mxGeometry x="250" y="455" width="120" height="60" as="geometry" />
        </mxCell>
        <mxCell id="ySbRYTqzYimIQLC_99c8-27" value="bluse_analyzer_0" style="rounded=1;whiteSpace=wrap;html=1;" vertex="1" parent="1">
          <mxGeometry x="220" y="405" width="120" height="60" as="geometry" />
        </mxCell>
        <mxCell id="ySbRYTqzYimIQLC_99c8-44" style="edgeStyle=orthogonalEdgeStyle;rounded=0;orthogonalLoop=1;jettySize=auto;html=1;exitX=0.17;exitY=1;exitDx=0;exitDy=0;exitPerimeter=0;" edge="1" parent="1" source="ySbRYTqzYimIQLC_99c8-1" target="ySbRYTqzYimIQLC_99c8-3">
          <mxGeometry relative="1" as="geometry">
            <Array as="points">
              <mxPoint x="410" y="230" />
              <mxPoint x="280" y="230" />
            </Array>
          </mxGeometry>
        </mxCell>
        <mxCell id="ySbRYTqzYimIQLC_99c8-45" style="edgeStyle=orthogonalEdgeStyle;rounded=0;orthogonalLoop=1;jettySize=auto;html=1;exitX=0.5;exitY=1;exitDx=0;exitDy=0;exitPerimeter=0;" edge="1" parent="1" source="ySbRYTqzYimIQLC_99c8-1" target="ySbRYTqzYimIQLC_99c8-4">
          <mxGeometry relative="1" as="geometry" />
        </mxCell>
        <mxCell id="ySbRYTqzYimIQLC_99c8-46" style="edgeStyle=orthogonalEdgeStyle;rounded=0;orthogonalLoop=1;jettySize=auto;html=1;exitX=0.83;exitY=1;exitDx=0;exitDy=0;exitPerimeter=0;" edge="1" parent="1" source="ySbRYTqzYimIQLC_99c8-1" target="ySbRYTqzYimIQLC_99c8-6">
          <mxGeometry relative="1" as="geometry">
            <Array as="points">
              <mxPoint x="490" y="230" />
              <mxPoint x="620" y="230" />
            </Array>
          </mxGeometry>
        </mxCell>
        <mxCell id="ySbRYTqzYimIQLC_99c8-1" value="&lt;font style=&quot;font-size: 14px;&quot;&gt;coordinator&lt;/font&gt;" style="rounded=1;whiteSpace=wrap;html=1;points=[[0,0,0,0,0],[0,0.25,0,0,0],[0,0.5,0,0,0],[0,0.75,0,0,0],[0,1,0,0,0],[0.17,1,0,0,0],[0.25,0,0,0,0],[0.33,1,0,0,0],[0.5,0,0,0,0],[0.5,1,0,0,0],[0.67,1,0,0,0],[0.75,0,0,0,0],[0.83,1,0,0,0],[1,0,0,0,0],[1,0.25,0,0,0],[1,0.5,0,0,0],[1,0.75,0,0,0],[1,1,0,0,0]];" vertex="1" parent="1">
          <mxGeometry x="390" y="120" width="120" height="60" as="geometry" />
        </mxCell>
        <mxCell id="ySbRYTqzYimIQLC_99c8-49" style="edgeStyle=orthogonalEdgeStyle;rounded=0;orthogonalLoop=1;jettySize=auto;html=1;exitX=0.5;exitY=1;exitDx=0;exitDy=0;" edge="1" parent="1" source="ySbRYTqzYimIQLC_99c8-3" target="ySbRYTqzYimIQLC_99c8-27">
          <mxGeometry relative="1" as="geometry" />
        </mxCell>
        <mxCell id="ySbRYTqzYimIQLC_99c8-3" value="&lt;font style=&quot;font-size: 14px;&quot;&gt;blpn0&lt;/font&gt;" style="rounded=0;whiteSpace=wrap;html=1;" vertex="1" parent="1">
          <mxGeometry x="220" y="270" width="120" height="60" as="geometry" />
        </mxCell>
        <mxCell id="ySbRYTqzYimIQLC_99c8-36" value="&lt;font style=&quot;font-size: 14px;&quot;&gt;zmq&lt;/font&gt;" style="text;html=1;strokeColor=none;fillColor=none;align=center;verticalAlign=middle;whiteSpace=wrap;rounded=0;" vertex="1" parent="1">
          <mxGeometry x="320" y="204" width="60" height="30" as="geometry" />
        </mxCell>
        <mxCell id="ySbRYTqzYimIQLC_99c8-37" value="&lt;font style=&quot;font-size: 14px;&quot;&gt;circusctl&lt;/font&gt;" style="text;html=1;strokeColor=none;fillColor=none;align=center;verticalAlign=middle;whiteSpace=wrap;rounded=0;" vertex="1" parent="1">
          <mxGeometry x="220" y="350" width="60" height="30" as="geometry" />
        </mxCell>
        <mxCell id="ySbRYTqzYimIQLC_99c8-39" value="bluse_analyzer_1" style="rounded=1;whiteSpace=wrap;html=1;" vertex="1" parent="1">
          <mxGeometry x="420" y="455" width="120" height="60" as="geometry" />
        </mxCell>
        <mxCell id="ySbRYTqzYimIQLC_99c8-40" value="bluse_analyzer_0" style="rounded=1;whiteSpace=wrap;html=1;" vertex="1" parent="1">
          <mxGeometry x="390" y="405" width="120" height="60" as="geometry" />
        </mxCell>
        <mxCell id="ySbRYTqzYimIQLC_99c8-41" value="bluse_analyzer_1" style="rounded=1;whiteSpace=wrap;html=1;" vertex="1" parent="1">
          <mxGeometry x="590" y="455" width="120" height="60" as="geometry" />
        </mxCell>
        <mxCell id="ySbRYTqzYimIQLC_99c8-42" value="bluse_analyzer_0" style="rounded=1;whiteSpace=wrap;html=1;" vertex="1" parent="1">
          <mxGeometry x="560" y="405" width="120" height="60" as="geometry" />
        </mxCell>
        <mxCell id="ySbRYTqzYimIQLC_99c8-56" value="&lt;font style=&quot;font-size: 14px;&quot;&gt;hosts&lt;/font&gt;" style="text;html=1;strokeColor=none;fillColor=none;align=center;verticalAlign=middle;whiteSpace=wrap;rounded=0;" vertex="1" parent="1">
          <mxGeometry x="130" y="280" width="60" height="30" as="geometry" />
        </mxCell>
        <mxCell id="ySbRYTqzYimIQLC_99c8-57" value="&lt;div style=&quot;font-size: 14px;&quot; align=&quot;left&quot;&gt;&lt;font style=&quot;font-size: 14px;&quot;&gt;processing &lt;br&gt;&lt;/font&gt;&lt;/div&gt;&lt;div style=&quot;font-size: 14px;&quot; align=&quot;left&quot;&gt;&lt;font style=&quot;font-size: 14px;&quot;&gt;instances&lt;br&gt;&lt;/font&gt;&lt;/div&gt;" style="text;html=1;strokeColor=none;fillColor=none;align=left;verticalAlign=middle;whiteSpace=wrap;rounded=0;" vertex="1" parent="1">
          <mxGeometry x="140" y="465" width="60" height="30" as="geometry" />
        </mxCell>
        <mxCell id="ySbRYTqzYimIQLC_99c8-59" value="&lt;div style=&quot;font-size: 14px;&quot; align=&quot;left&quot;&gt;&lt;font style=&quot;font-size: 14px;&quot;&gt;headnode process&lt;/font&gt;&lt;br&gt;&lt;/div&gt;" style="text;html=1;strokeColor=none;fillColor=none;align=left;verticalAlign=middle;whiteSpace=wrap;rounded=0;" vertex="1" parent="1">
          <mxGeometry x="140" y="135" width="60" height="30" as="geometry" />
        </mxCell>
      </root>
    </mxGraphModel>
  </diagram>
</mxfile>
